<svg width="205" height="108" viewBox="0 0 205 108" fill="none" xmlns="http://www.w3.org/2000/svg">
<path d="M160 105C160 106.657 161.343 108 163 108H170.53H176.181H181.391H191.692H201C202.657 108 204 106.657 204 105V59.7747C204 58.2423 202.758 57 201.225 57C200.417 57 199.648 57.3529 199.121 57.9663L184.464 75.0234C183.277 76.4041 181.144 76.4184 179.94 75.0537L164.823 57.9321C164.3 57.3395 163.547 57 162.757 57C161.234 57 160 58.2342 160 59.7566V105Z" fill="#0D1821"/>
<path d="M3 56.8421C1.34315 56.8421 0 58.1852 0 59.8421V105C0 106.657 1.34315 108 3 108H12.431H16.6959H26.0252H34.8416C37.1549 108 38.5978 105.492 37.4352 103.492L30.1957 91.0384C29.2192 89.3587 30.0946 87.2226 31.8055 86.302C37.1843 83.4075 39.6194 78.3046 39.6194 72.9474C39.6194 64.0567 33.3675 56.8421 20.8638 56.8421H3Z" fill="#0D1821"/>
<path d="M190.468 51.1579H199.742C202.26 51.1579 203.658 48.2425 202.081 46.2791L186.555 26.9511C185.672 25.8521 185.674 24.2867 186.559 23.1893L201.319 4.88308C202.902 2.92066 201.505 0 198.984 0H190.32H178.801H172.93H163.222C161.565 0 160.222 1.34315 160.222 3V48.1579C160.222 49.8147 161.565 51.1579 163.222 51.1579H172.93H178.801H190.468Z" fill="#0D1821"/>
<path d="M40.0556 37.2389C40.0556 32.7267 37.7847 28.5638 34.0389 26.338C33.1483 25.8088 33.0769 23.84 33.9326 23.2558C36.9262 21.212 38.9111 17.8323 38.9111 13.2632C38.9111 5.17409 32.8313 0 22.6028 0H0.999999C0.447715 0 0 0.447715 0 1V50.1579C0 50.7102 0.447715 51.1579 1 51.1579H23.3896C33.9757 51.1579 40.0556 45.6923 40.0556 37.2389Z" fill="#0D1821"/>
<path d="M97.2778 25.5434C97.2778 10.5304 85.9049 0 71.5994 0C57.3653 0 45.7778 10.5304 45.7778 25.5434C45.7778 40.5563 57.3653 51.1579 71.5994 51.1579C85.8334 51.1579 97.2778 40.5563 97.2778 25.5434Z" fill="#BFCC94"/>
<path d="M97.2778 82.3855C97.2778 67.3725 85.9049 56.8421 71.5994 56.8421C57.3653 56.8421 45.7778 67.3725 45.7778 82.3855C45.7778 97.3984 57.3653 108 71.5994 108C85.8334 108 97.2778 97.3984 97.2778 82.3855Z" fill="#344966"/>
<path d="M154.5 25.5434C154.5 10.5304 143.127 0 128.822 0C114.587 0 103 10.5304 103 25.5434C103 40.5563 114.587 51.1579 128.822 51.1579C143.056 51.1579 154.5 40.5563 154.5 25.5434Z" fill="#344966"/>
<path d="M154.5 82.3855C154.5 67.3725 143.127 56.8421 128.822 56.8421C114.587 56.8421 103 67.3725 103 82.3855C103 97.3984 114.587 108 128.822 108C143.056 108 154.5 97.3984 154.5 82.3855Z" fill="#BFCC94"/>
</svg>
