<?xml version="1.0" encoding="UTF-8" standalone="no" ?>
<!DOCTYPE svg PUBLIC "-//W3C//DTD SVG 1.1//EN" "http://www.w3.org/Graphics/SVG/1.1/DTD/svg11.dtd">
<svg xmlns="http://www.w3.org/2000/svg" xmlns:xlink="http://www.w3.org/1999/xlink" version="1.1" width="48" height="48" viewBox="0 0 48 48" xml:space="preserve">
<desc>Created with Fabric.js 4.6.0</desc>
<defs>
</defs>
<g transform="matrix(1 0 0 1 24 24)" id="oJ__IV9XA3--6ThOMGdlH"  >
<circle style="stroke: none; stroke-width: 1; stroke-dasharray: none; stroke-linecap: butt; stroke-dashoffset: 0; stroke-linejoin: miter; stroke-miterlimit: 4; fill: rgb(52,73,102); fill-rule: nonzero; opacity: 1;" vector-effect="non-scaling-stroke"  cx="0" cy="0" r="24" />
</g>
<g transform="matrix(1 0 0 1 22.75 24)" id="qhe8kyaY1-vxYMJgZ7oKc"  >
<g style="" vector-effect="non-scaling-stroke"   >
		<g transform="matrix(1 0 0 1 0 -2.44)" id="KOuw1j08fOXoNonuUUDgU"  >
<path style="stroke: rgb(240,244,239); stroke-width: 2; stroke-dasharray: none; stroke-linecap: round; stroke-dashoffset: 0; stroke-linejoin: miter; stroke-miterlimit: 4; fill: none; fill-rule: nonzero; opacity: 1;" vector-effect="non-scaling-stroke"  transform=" translate(-12.81, -10.56)" d="M 1.08325 2.16675 L 3.81224 2.16675 C 4.74964 2.16675 5.56127 2.81781 5.76462 3.73289 L 6.49992 7.04175 M 6.49992 7.04175 L 7.77082 14.0317 C 8.28954 16.8847 10.7743 18.9584 13.674 18.9584 L 17.4189 18.9584 C 20.2203 18.9584 22.6488 17.0199 23.2697 14.2881 L 24.5001 8.87418 C 24.7134 7.93554 24 7.04175 23.0374 7.04175 L 6.49992 7.04175 Z" stroke-linecap="round" />
</g>
		<g transform="matrix(1 0 0 1 -3.6 9.75)" id="j2QlzNjJ0pnUu8SO68sl1"  >
<path style="stroke: rgb(240,244,239); stroke-width: 2; stroke-dasharray: none; stroke-linecap: butt; stroke-dashoffset: 0; stroke-linejoin: miter; stroke-miterlimit: 4; fill: none; fill-rule: nonzero; opacity: 1;" vector-effect="non-scaling-stroke"  transform=" translate(-1.08, -1.08)" d="M 0 1.08333 C 0 0.4850199999999999 0.48502 0 1.08333 0 C 1.6816399999999998 0 2.16666 0.48502 2.16666 1.08333 C 2.16666 1.6816399999999998 1.6816399999999998 2.16666 1.08333 2.16666 C 0.4850199999999999 2.16666 0 1.6816399999999998 0 1.08333 z" stroke-linecap="round" />
</g>
		<g transform="matrix(1 0 0 1 9.4 9.75)" id="jo2EOhV3sTLFAZL-kd7uP"  >
<path style="stroke: rgb(240,244,239); stroke-width: 2; stroke-dasharray: none; stroke-linecap: butt; stroke-dashoffset: 0; stroke-linejoin: miter; stroke-miterlimit: 4; fill: none; fill-rule: nonzero; opacity: 1;" vector-effect="non-scaling-stroke"  transform=" translate(-1.08, -1.08)" d="M 0 1.08333 C 0 0.4850199999999999 0.48502 0 1.08333 0 C 1.6816399999999998 0 2.16666 0.48502 2.16666 1.08333 C 2.16666 1.6816399999999998 1.6816399999999998 2.16666 1.08333 2.16666 C 0.4850199999999999 2.16666 0 1.6816399999999998 0 1.08333 z" stroke-linecap="round" />
</g>
</g>
</g>
</svg>